<svg width="24" height="24" viewBox="0 0 24 24" fill="none" xmlns="http://www.w3.org/2000/svg">
<path d="M20.4 4.7998H3.60002C2.94002 4.7998 2.40002 5.3398 2.40002 5.9998V17.9998C2.40002 18.6598 2.94002 19.1998 3.60002 19.1998H20.4C21.06 19.1998 21.6 18.6598 21.6 17.9998V5.9998C21.6 5.3398 21.06 4.7998 20.4 4.7998ZM6.30002 14.8918L4.40402 12.0358C4.22402 11.7598 4.29602 11.3878 4.57202 11.2078C4.84802 11.0278 5.22002 11.0998 5.40002 11.3758L6.63602 13.2238L9.19202 9.2038C9.37202 8.9278 9.74402 8.8438 10.02 9.0238C10.296 9.2038 10.38 9.5758 10.2 9.8518L6.99602 14.8918C6.82802 15.1438 6.46802 15.1558 6.30002 14.8918ZM19.092 14.6518H10.644C10.308 14.6518 10.044 14.3878 10.044 14.0518C10.044 13.7158 10.308 13.4518 10.644 13.4518H19.092C19.428 13.4518 19.692 13.7158 19.692 14.0518C19.692 14.3878 19.428 14.6518 19.092 14.6518ZM19.092 11.1118H11.7C11.364 11.1118 11.1 10.8478 11.1 10.5118C11.1 10.1758 11.364 9.9118 11.7 9.9118H19.092C19.428 9.9118 19.692 10.1758 19.692 10.5118C19.692 10.8478 19.428 11.1118 19.092 11.1118Z" fill="#22B4E2"/>
</svg>
