<svg width="95" height="23" viewBox="0 0 95 23" fill="none" xmlns="http://www.w3.org/2000/svg">
<path d="M47.9441 18.4053C46.0448 18.4053 45.3541 17.6306 45.3541 16.1606V14.4713C45.3541 13.006 46.0448 12.2266 47.9441 12.2266H52.3588V11.0553C52.3588 10.4533 52.1021 10.192 51.4955 10.192H46.0075V8.67529H51.4955C53.3948 8.67529 54.0855 9.44996 54.0855 10.92V16.1653C54.0855 17.6306 53.3948 18.41 51.4955 18.41H47.9395L47.9441 18.4053ZM52.3635 13.748H47.9488C47.3468 13.748 47.0855 14.0046 47.0855 14.6113V16.0253C47.0855 16.6273 47.3421 16.8886 47.9488 16.8886H51.5048C52.1068 16.8886 52.3681 16.632 52.3681 16.0253V13.748H52.3635Z" fill="#0862A9"/>
<path d="M57.1051 18.4053V12.124C57.1051 9.87929 58.2251 8.67529 60.8151 8.67529H61.9024V10.2293H60.7311C59.4384 10.2293 58.8318 10.92 58.8318 12.1286V18.41H57.1051V18.4053Z" fill="#0862A9"/>
<path d="M87.8959 18.4053V4.20459H89.6225V18.4053H87.8959Z" fill="#0862A9"/>
<path d="M92.9869 18.4053V4.20459H94.7136V18.4053H92.9869Z" fill="#0862A9"/>
<path d="M12.8042 0C6.96154 0 2.14087 4.45667 1.55754 10.1453H0.927539C0.596206 10.1453 0.390873 10.5093 0.56354 10.794L1.79554 12.838C1.96354 13.1133 2.36021 13.1133 2.52821 12.838L3.76021 10.794C3.93287 10.5093 3.72754 10.1453 3.39621 10.1453H2.82221C3.40087 5.14267 7.66154 1.246 12.8135 1.246C17.9655 1.246 22.2915 5.20333 22.8189 10.2573C22.9495 10.0473 23.1735 9.898 23.4955 9.898C23.7382 9.898 23.9202 9.982 24.0555 10.1127C23.4582 4.438 18.6422 0 12.8089 0H12.8042Z" fill="#22B4E2"/>
<path d="M25.1566 12.8513L23.8593 10.6953C23.7099 10.4433 23.3459 10.4433 23.1919 10.6953L21.8946 12.8513C21.7406 13.1127 21.9273 13.4393 22.2259 13.4393H22.6319C21.6473 17.966 17.6153 21.3634 12.7993 21.3634C7.98327 21.3634 3.98393 17.9893 2.9806 13.4953C2.87793 13.7473 2.65393 13.948 2.29927 13.948C2.06127 13.948 1.87927 13.8593 1.75793 13.724C2.8686 18.8013 7.3906 22.614 12.7946 22.614C18.1986 22.614 22.8933 18.6614 23.8966 13.444H24.8159C25.1193 13.444 25.3059 13.1127 25.1473 12.856L25.1566 12.8513Z" fill="#0862A9"/>
<path d="M18.0674 5.2311C17.9741 5.2731 17.8901 5.3011 17.7921 5.32443C17.6427 5.36177 17.1901 5.1891 17.1901 5.1891C17.1901 5.1891 17.6007 5.44577 17.6614 5.58577C17.6987 5.6791 17.7314 5.7631 17.7547 5.8611C17.7921 6.01043 17.6194 6.4631 17.6194 6.4631C17.6194 6.4631 17.8761 6.05243 18.0161 5.99177C18.1094 5.94977 18.1934 5.92177 18.2914 5.89843C18.4407 5.8611 18.8934 6.03377 18.8934 6.03377C18.8934 6.03377 18.4827 5.7771 18.4221 5.6371C18.3847 5.54376 18.3567 5.45977 18.3287 5.36177C18.2914 5.21243 18.4641 4.75977 18.4641 4.75977C18.4641 4.75977 18.2074 5.17043 18.0674 5.2311Z" fill="#22B4E2"/>
<path d="M19.6964 11.0693L19.5424 10.626C19.4584 10.3787 19.1924 10.1827 18.9451 10.1827H18.3944C18.3944 10.1827 18.3897 10.164 18.385 10.1547C18.3757 10.1547 18.3617 10.1547 18.3524 10.1547L17.643 7.50866L17.6197 7.44333C17.3584 6.818 16.789 6.43066 16.1357 6.43066H9.98505C9.24305 6.43066 8.58505 6.92533 8.38905 7.63L7.68438 10.1733H7.15238C6.90972 10.1733 6.63905 10.374 6.55505 10.6213L6.40105 11.0647C6.31705 11.312 6.44772 11.508 6.69505 11.508H7.23172C7.16172 11.7087 7.11972 11.83 7.11972 11.83C7.07772 11.9047 7.04505 12.236 7.04505 12.3247V16.3753C7.04505 16.6367 7.25505 16.8467 7.51638 16.8467H9.24305C9.50438 16.8467 9.71438 16.6367 9.71438 16.3753V15.512H16.3877V16.3753C16.3877 16.6367 16.5977 16.8467 16.859 16.8467H18.5857C18.847 16.8467 19.057 16.6367 19.057 16.3753V12.3247C19.057 12.236 19.0244 11.9 18.9824 11.83C18.9824 11.83 18.9404 11.7087 18.8704 11.508H19.407C19.6497 11.508 19.785 11.3073 19.701 11.0647L19.6964 11.0693ZM9.70505 13.552H8.99105C8.35172 13.552 7.71238 13.468 7.71238 13.062V12.572C7.71238 12.096 7.98772 12.082 8.28638 12.082C8.58505 12.082 9.14972 12.3247 9.52772 12.4973C9.93838 12.6793 10.4004 12.838 10.4004 13.1413C10.4004 13.426 10.2417 13.5567 9.70505 13.5567V13.552ZM9.15438 10.4767C9.15438 10.4767 9.12638 10.4767 9.11238 10.4767C8.98172 10.4347 8.84172 10.4067 8.70638 10.3833L9.38772 7.91466C9.45772 7.658 9.70505 7.476 9.98038 7.476H16.1311C16.3597 7.476 16.5464 7.602 16.6444 7.82133L17.3304 10.374C17.0784 10.4487 15.6644 10.85 13.0464 10.85C11.0771 10.85 9.77972 10.626 9.14972 10.4813L9.15438 10.4767ZM17.111 13.552H16.3971C15.8604 13.552 15.7017 13.4213 15.7017 13.1367C15.7017 12.8287 16.1637 12.6747 16.5744 12.4927C16.9524 12.3247 17.5264 12.0773 17.8157 12.0773C18.1051 12.0773 18.3897 12.096 18.3897 12.5673V13.062C18.3897 13.468 17.7504 13.552 17.111 13.552Z" fill="#22B4E2"/>
<path d="M18.6376 11.5215H7.66162V15.0728H18.6376V11.5215Z" fill="#22B4E2"/>
<path d="M10.2847 13.029V12.5577L9.90203 12.3057H8.9407C8.7727 12.3057 8.6187 12.385 8.51603 12.5157L8.1427 13.001H9.36537V13.6263H10.308L10.28 13.029H10.2847Z" fill="white"/>
<path d="M10.2847 13.902V14.3734L9.90203 14.6254H8.9407C8.7727 14.6254 8.6187 14.546 8.51603 14.4154L8.1427 13.93H9.36537V13.3047H10.308L10.28 13.902H10.2847Z" fill="white"/>
<path d="M15.959 13.029V12.5577L16.3417 12.3057H17.303C17.471 12.3057 17.625 12.385 17.7277 12.5157L18.101 13.001H16.8783V13.6263H15.9357L15.9637 13.029H15.959Z" fill="white"/>
<path d="M15.959 13.902V14.3734L16.3417 14.6254H17.303C17.471 14.6254 17.625 14.546 17.7277 14.4154L18.101 13.93H16.8783V13.3047H15.9357L15.9637 13.902H15.959Z" fill="white"/>
<path d="M16.0898 13.0669H10.0978V13.9022H16.0898V13.0669Z" fill="white"/>
<path d="M28.46 11.3954C28.46 7.02745 31.6706 3.83545 36.0386 3.83545C39.772 3.83545 42.3526 6.00078 43.1133 9.02945H41.1813C40.57 6.99012 38.708 5.58545 36.076 5.58545C32.758 5.58545 30.3546 8.00278 30.3546 11.3954C30.3546 14.7881 32.772 17.2055 36.076 17.2055C38.7826 17.2055 40.8033 15.6188 41.326 13.5608H43.258C42.628 16.5755 39.8653 18.9555 36.0433 18.9555C31.6753 18.9555 28.4646 15.7634 28.4646 11.3954H28.46Z" fill="#0862A9"/>
<path d="M66.0329 17.0561V18.4934H64.2922V4.53076H66.0329V10.2614C66.5229 9.43076 67.7082 8.5861 69.4629 8.5861C72.2022 8.5861 74.2462 10.7654 74.2462 13.6588C74.2462 16.5521 72.2022 18.7314 69.4629 18.7314C67.7036 18.7314 66.5229 17.8868 66.0329 17.0561ZM72.5429 13.6588C72.5429 11.6474 71.2596 10.1261 69.3136 10.1261C67.3676 10.1261 66.0002 11.6474 66.0002 13.6588C66.0002 15.6701 67.3536 17.1914 69.3136 17.1914C71.2736 17.1914 72.5429 15.6701 72.5429 13.6588Z" fill="#0862A9"/>
<path d="M75.9731 13.6596C75.9731 10.7522 78.0031 8.58691 80.8265 8.58691C83.6498 8.58691 85.6611 10.7522 85.6611 13.6596C85.6611 13.8789 85.6611 14.1309 85.6285 14.3689H77.7185C77.9051 16.0256 79.1045 17.2576 80.8311 17.2576C82.1518 17.2576 83.1831 16.6509 83.5378 15.8529H85.3111C84.7885 17.5282 83.0478 18.7276 80.8311 18.7276C78.0078 18.7276 75.9778 16.5622 75.9778 13.6549L75.9731 13.6596ZM80.8218 10.0616C79.0811 10.0616 77.8958 11.2796 77.7091 12.9502H83.9485C83.7478 11.2609 82.5625 10.0616 80.8218 10.0616Z" fill="#0862A9"/>
</svg>
