<svg width="24" height="24" viewBox="0 0 24 24" fill="none" xmlns="http://www.w3.org/2000/svg">
<rect x="8.16663" y="4.1665" width="7.66667" height="15" rx="3.83333" stroke="#22B4E2" stroke-width="3"/>
<path fill-rule="evenodd" clip-rule="evenodd" d="M7.44446 10C5.7876 10 4.44446 11.3431 4.44446 13V18.3333C4.44446 19.9902 5.7876 21.3333 7.44446 21.3333H16.5556C18.2124 21.3333 19.5556 19.9902 19.5556 18.3333V13C19.5556 11.3431 18.2124 10 16.5556 10H7.44446ZM13.2592 14.4074C13.2592 14.8735 13.006 15.2805 12.6296 15.4982V18.1852H11.3704V15.4982C10.994 15.2805 10.7407 14.8735 10.7407 14.4074C10.7407 13.7119 11.3045 13.1481 12 13.1481C12.6955 13.1481 13.2592 13.7119 13.2592 14.4074Z" fill="#22B4E2"/>
</svg>
