<svg width="64" height="64" viewBox="0 0 64 64" fill="none" xmlns="http://www.w3.org/2000/svg">
<path d="M56.9985 14.8125H46.8423L44.5923 10.2812C44.061 9.21875 42.9673 8.5625 41.811 8.5625H22.2485C21.061 8.5625 19.9673 9.21875 19.4673 10.2812L17.2173 14.8125H7.06104C5.34229 14.8125 3.93604 16.2188 3.93604 17.9375V49.1875C3.93604 50.9062 5.34229 52.3125 7.06104 52.3125H57.061C58.7798 52.3125 60.186 50.9062 60.186 49.1875V17.9375C60.186 16.2188 58.7798 14.8125 57.061 14.8125H56.9985ZM31.9985 46.8438C24.6548 46.8438 18.7173 40.9062 18.7173 33.5625C18.7173 26.2188 24.6548 20.2812 31.9985 20.2812C39.3423 20.2812 45.2798 26.2188 45.2798 33.5625C45.2798 40.9062 39.3423 46.8438 31.9985 46.8438Z" fill="#949494"/>
<path d="M32 42.9375C37.1777 42.9375 41.375 38.7402 41.375 33.5625C41.375 28.3848 37.1777 24.1875 32 24.1875C26.8223 24.1875 22.625 28.3848 22.625 33.5625C22.625 38.7402 26.8223 42.9375 32 42.9375Z" fill="#949494"/>
</svg>
