<svg width="23" height="13" viewBox="0 0 23 13" fill="none" xmlns="http://www.w3.org/2000/svg">
<path d="M0.902344 13V0.273438H2.41406V7.67383H2.58984L6.7207 3.45508H8.58398L4.55859 7.54199L8.88281 13H6.9668L3.4248 8.5L2.41406 9.44043V13H0.902344ZM10.2012 13V3.45508H11.6602V4.94922H11.7832C12.1787 3.92969 13.1016 3.33203 14.3496 3.33203C15.5977 3.33203 16.4502 3.92969 16.8984 4.94922H17.0039C17.4873 3.96484 18.498 3.33203 19.8691 3.33203C21.5654 3.33203 22.7871 4.36914 22.7871 6.61914V13H21.2754V6.63672C21.2666 5.23047 20.3877 4.68555 19.3418 4.68555C18.0146 4.68555 17.2588 5.58203 17.25 6.79492V13H15.7207V6.47852C15.7295 5.40625 14.9561 4.68555 13.8574 4.68555C12.7148 4.68555 11.7129 5.65234 11.7129 7.04102V13H10.2012Z" fill="#191919"/>
</svg>
