<svg width="89" height="80" viewBox="0 0 89 80" fill="none" xmlns="http://www.w3.org/2000/svg">
<path d="M44.7711 0C34.1618 0 25.4082 8.09259 24.349 18.4223H23.205C22.6033 18.4223 22.2305 19.0833 22.544 19.6002L24.7811 23.3117C25.0862 23.8117 25.8065 23.8117 26.1115 23.3117L28.3487 19.6002C28.6622 19.0833 28.2893 18.4223 27.6877 18.4223H26.6454C27.6962 9.33825 35.4328 2.26254 44.788 2.26254C54.1433 2.26254 61.9986 9.44841 62.9561 18.6257C63.1934 18.2443 63.6001 17.9732 64.1848 17.9732C64.6255 17.9732 64.956 18.1257 65.2017 18.363C64.117 8.05869 55.372 0 44.7796 0H44.7711Z" fill="#22B4E2"/>
<path d="M67.2023 23.3372L64.8466 19.4223C64.5754 18.9647 63.9144 18.9647 63.6348 19.4223L61.2791 23.3372C60.9994 23.8118 61.3384 24.405 61.8807 24.405H62.6179C60.8299 32.6247 53.5085 38.7937 44.7634 38.7937C36.0183 38.7937 28.7562 32.667 26.9343 24.5066C26.7478 24.9642 26.3411 25.3286 25.6971 25.3286C25.2649 25.3286 24.9344 25.1676 24.7141 24.9219C26.7309 34.1415 34.9421 41.0647 44.7549 41.0647C54.5677 41.0647 63.0925 33.8873 64.9144 24.4134H66.5837C67.1345 24.4134 67.4735 23.8118 67.1854 23.3457L67.2023 23.3372Z" fill="#0862A9"/>
<path d="M54.3316 9.49881C54.1621 9.57507 54.0096 9.62592 53.8317 9.66829C53.5605 9.73608 52.7385 9.42254 52.7385 9.42254C52.7385 9.42254 53.4842 9.88861 53.5944 10.1428C53.6622 10.3123 53.7215 10.4648 53.7639 10.6428C53.8317 10.914 53.5181 11.7359 53.5181 11.7359C53.5181 11.7359 53.9842 10.9902 54.2384 10.8801C54.4079 10.8038 54.5604 10.7529 54.7384 10.7106C55.0095 10.6428 55.8315 10.9563 55.8315 10.9563C55.8315 10.9563 55.0858 10.4903 54.9756 10.236C54.9078 10.0666 54.857 9.91403 54.8062 9.73608C54.7384 9.46491 55.0519 8.64294 55.0519 8.64294C55.0519 8.64294 54.5858 9.38865 54.3316 9.49881Z" fill="#22B4E2"/>
<path d="M57.2902 20.0996L57.0106 19.2946C56.858 18.8454 56.375 18.4895 55.9259 18.4895H54.926C54.926 18.4895 54.9175 18.4556 54.909 18.4387C54.8921 18.4387 54.8666 18.4387 54.8497 18.4387L53.5617 13.634L53.5193 13.5154C53.0448 12.3799 52.0109 11.6765 50.8246 11.6765H39.656C38.3086 11.6765 37.1138 12.5747 36.7579 13.8543L35.4783 18.4726H34.5123C34.0717 18.4726 33.5802 18.837 33.4276 19.2861L33.148 20.0911C32.9955 20.5402 33.2327 20.8961 33.6819 20.8961H34.6564C34.5292 21.2605 34.453 21.4808 34.453 21.4808C34.3767 21.6164 34.3174 22.2181 34.3174 22.3791V29.7344C34.3174 30.209 34.6987 30.5903 35.1733 30.5903H38.3086C38.7832 30.5903 39.1645 30.209 39.1645 29.7344V28.1667H51.2822V29.7344C51.2822 30.209 51.6635 30.5903 52.1381 30.5903H55.2734C55.7479 30.5903 56.1293 30.209 56.1293 29.7344V22.3791C56.1293 22.2181 56.07 21.6079 55.9937 21.4808C55.9937 21.4808 55.9174 21.2605 55.7903 20.8961H56.7648C57.2055 20.8961 57.4512 20.5318 57.2987 20.0911L57.2902 20.0996ZM39.1475 24.6077H37.851C36.6901 24.6077 35.5292 24.4552 35.5292 23.7179V22.8282C35.5292 21.9638 36.0291 21.9384 36.5715 21.9384C37.1138 21.9384 38.1391 22.3791 38.8255 22.6926C39.5712 23.0231 40.4101 23.3112 40.4101 23.862C40.4101 24.3789 40.122 24.6162 39.1475 24.6162V24.6077ZM38.1476 19.0234C38.1476 19.0234 38.0968 19.0234 38.0713 19.0234C37.8341 18.9471 37.5799 18.8963 37.3341 18.8539L38.5713 14.3712C38.6984 13.9052 39.1475 13.5747 39.6475 13.5747H50.8161C51.2313 13.5747 51.5703 13.8035 51.7483 14.2017L52.9939 18.837C52.5363 18.9726 49.9687 19.7013 45.2149 19.7013C41.6389 19.7013 39.2831 19.2946 38.1391 19.0319L38.1476 19.0234ZM52.5956 24.6077H51.2991C50.3246 24.6077 50.0365 24.3704 50.0365 23.8535C50.0365 23.2942 50.8754 23.0146 51.6211 22.6841C52.3075 22.3791 53.3498 21.9299 53.8752 21.9299C54.4006 21.9299 54.9175 21.9638 54.9175 22.8197V23.7179C54.9175 24.4552 53.7566 24.6077 52.5956 24.6077Z" fill="#22B4E2"/>
<path d="M55.3647 20.9219H35.4341V27.3705H55.3647V20.9219Z" fill="#22B4E2"/>
<path d="M40.1949 23.6589V22.8031L39.5001 22.3455H37.7545C37.4494 22.3455 37.1698 22.4895 36.9833 22.7268L36.3054 23.6081H38.5256V24.7436H40.2373L40.1865 23.6589H40.1949Z" fill="white"/>
<path d="M40.1949 25.2435V26.0993L39.5001 26.5569H37.7545C37.4494 26.5569 37.1698 26.4129 36.9833 26.1756L36.3054 25.2943H38.5256V24.1588H40.2373L40.1865 25.2435H40.1949Z" fill="white"/>
<path d="M50.5014 23.6589V22.8031L51.1962 22.3455H52.9418C53.2469 22.3455 53.5265 22.4895 53.713 22.7268L54.3909 23.6081H52.1707V24.7436H50.459L50.5098 23.6589H50.5014Z" fill="white"/>
<path d="M50.5014 25.2435V26.0993L51.1962 26.5569H52.9418C53.2469 26.5569 53.5265 26.4129 53.713 26.1756L54.3909 25.2943H52.1707V24.1588H50.459L50.5098 25.2435H50.5014Z" fill="white"/>
<path d="M50.7352 23.7269H39.8547V25.2438H50.7352V23.7269Z" fill="white"/>
<path d="M26.0121 79.2651C23.4763 79.2651 22.5542 78.2308 22.5542 76.2682V74.0127C22.5542 72.0563 23.4763 71.0158 26.0121 71.0158H31.9062V69.452C31.9062 68.6482 31.5635 68.2993 30.7536 68.2993H23.4265V66.2744H30.7536C33.2894 66.2744 34.2115 67.3087 34.2115 69.2713V76.2744C34.2115 78.2308 33.2894 79.2713 30.7536 79.2713H26.0059L26.0121 79.2651ZM31.9125 73.047H26.0184C25.2146 73.047 24.8657 73.3897 24.8657 74.1996V76.0875C24.8657 76.8912 25.2084 77.2401 26.0184 77.2401H30.766C31.5698 77.2401 31.9187 76.8975 31.9187 76.0875V73.047H31.9125Z" fill="#0862A9"/>
<path d="M38.2432 79.2651V70.8788C38.2432 67.8819 39.7385 66.2744 43.1964 66.2744H44.6481V68.3492H43.0843C41.3584 68.3492 40.5485 69.2713 40.5485 70.885V79.2713H38.2432V79.2651Z" fill="#0862A9"/>
<path d="M79.3521 79.265V60.3055H81.6573V79.265H79.3521Z" fill="#0862A9"/>
<path d="M86.1482 79.265V60.3055H88.4535V79.265H86.1482Z" fill="#0862A9"/>
<path d="M0 69.9066C0 64.0748 4.2866 59.8131 10.1184 59.8131C15.1028 59.8131 18.5483 62.7041 19.5639 66.7477H16.9844C16.1682 64.0249 13.6822 62.1496 10.1682 62.1496C5.73832 62.1496 2.52959 65.377 2.52959 69.9066C2.52959 74.4362 5.75701 77.6636 10.1682 77.6636C13.7819 77.6636 16.4798 75.5452 17.1776 72.7975H19.757C18.9159 76.8225 15.2274 80 10.1246 80C4.29284 80 0.00623186 75.7383 0.00623186 69.9066H0Z" fill="#0862A9"/>
<path d="M50.1631 77.464V79.383H47.8391V60.7412H50.1631V68.3923C50.8173 67.2833 52.3999 66.1555 54.7425 66.1555C58.3999 66.1555 61.1288 69.0652 61.1288 72.9281C61.1288 76.7911 58.3999 79.7007 54.7425 79.7007C52.3936 79.7007 50.8173 78.573 50.1631 77.464ZM58.8547 72.9281C58.8547 70.2428 57.1413 68.2116 54.5432 68.2116C51.945 68.2116 50.1195 70.2428 50.1195 72.9281C50.1195 75.6135 51.9263 77.6446 54.5432 77.6446C57.16 77.6446 58.8547 75.6135 58.8547 72.9281Z" fill="#0862A9"/>
<path d="M63.4331 72.9286C63.4331 69.047 66.1434 66.156 69.9129 66.156C73.6823 66.156 76.3677 69.047 76.3677 72.9286C76.3677 73.2214 76.3677 73.5579 76.3241 73.8756H65.7633C66.0125 76.0875 67.6138 77.7323 69.9191 77.7323C71.6823 77.7323 73.0593 76.9224 73.5328 75.8569H75.9004C75.2026 78.0937 72.8786 79.6949 69.9191 79.6949C66.1496 79.6949 63.4393 76.804 63.4393 72.9224L63.4331 72.9286ZM69.9066 68.1249C67.5826 68.1249 66.0001 69.751 65.7509 71.9815H74.0811C73.8132 69.7261 72.2306 68.1249 69.9066 68.1249Z" fill="#0862A9"/>
</svg>
